<svg width="22.000000" height="21.000000" viewBox="0 0 22 21" fill="none" xmlns="http://www.w3.org/2000/svg" xmlns:xlink="http://www.w3.org/1999/xlink">
	<desc>
			Created with Pixso.
	</desc>
	<defs/>
	<path id="Vector" d="M11.03 0C4.92 0 0 4.81 0 10.78C0 15.52 3.16 19.55 7.57 20.98C8.16 21.06 8.31 20.77 8.31 20.48L8.31 18.61C5.22 19.26 4.56 17.17 4.56 17.17C4.04 15.95 3.31 15.59 3.31 15.59C2.28 14.95 3.38 14.95 3.38 14.95C4.48 15.02 5.07 16.02 5.07 16.02C6.03 17.68 7.65 17.17 8.31 16.89C8.38 16.17 8.68 15.74 9.04 15.45C6.62 15.16 4.04 14.23 4.04 10.13C4.04 8.98 4.48 7.97 5.15 7.25C5 6.97 4.63 5.89 5.22 4.38C5.22 4.38 6.18 4.09 8.24 5.46C9.12 5.24 10.07 5.1 11.03 5.1C11.99 5.1 12.94 5.24 13.83 5.46C15.96 4.09 16.84 4.38 16.84 4.38C17.43 5.89 17.06 6.97 16.92 7.25C17.65 7.97 18.02 8.98 18.02 10.13C18.02 14.3 15.45 15.16 13.02 15.45C13.39 15.81 13.75 16.46 13.75 17.46L13.75 20.41C13.75 20.7 13.97 21.06 14.49 20.91C18.9 19.47 21.99 15.45 21.99 10.71C22.07 4.81 17.14 0 11.03 0Z" fill="#FFFFFF" fill-opacity="1.000000" fill-rule="evenodd"/>
</svg>
