<svg width="25.000000" height="15.000000" viewBox="0 0 25 15" fill="none" xmlns="http://www.w3.org/2000/svg" xmlns:xlink="http://www.w3.org/1999/xlink">
	<desc>
			Created with Pixso.
	</desc>
	<defs/>
	<path id="Vector" d="M12.26 14.9L13.78 14.9C13.78 14.9 14.23 14.82 14.46 14.58C14.69 14.35 14.69 13.87 14.69 13.87C14.69 13.87 14.69 11.81 15.6 11.49C16.51 11.17 17.72 13.55 18.93 14.43C19.84 15.14 20.53 14.98 20.53 14.98L23.86 14.9C23.86 14.9 25.6 14.82 24.77 13.32C24.69 13.24 24.31 12.28 22.27 10.3C20.15 8.24 20.45 8.64 22.95 5.07C24.47 2.93 25.07 1.66 24.92 1.03C24.77 0.47 23.63 0.63 23.63 0.63L19.84 0.63C19.84 0.63 19.54 0.55 19.39 0.71C19.16 0.87 19.09 1.1 19.09 1.1C19.09 1.1 18.48 2.77 17.72 4.2C16.05 7.13 15.37 7.29 15.14 7.13C14.54 6.73 14.69 5.39 14.69 4.51C14.69 1.66 15.14 0.47 13.86 0.15C13.48 0.07 13.17 0 12.11 0C10.75 0 9.61 0 9.01 0.31C8.55 0.55 8.25 1.03 8.47 1.03C8.7 1.03 9.31 1.18 9.61 1.58C9.91 2.29 9.91 3.48 9.91 3.48C9.91 3.48 10.14 6.89 9.38 7.29C8.85 7.61 8.17 6.97 6.66 4.28C5.9 2.93 5.29 1.34 5.29 1.34C5.29 1.34 5.22 1.03 4.99 0.87C4.76 0.71 4.38 0.63 4.38 0.63L0.82 0.63C0.82 0.63 0.29 0.63 0.06 0.87C-0.09 1.1 0.06 1.5 0.06 1.5C0.06 1.5 2.87 8.32 6.05 11.81C9.01 15.14 12.26 14.9 12.26 14.9Z" fill="#FFFFFF" fill-opacity="1.000000" fill-rule="evenodd"/>
</svg>
