<svg width="20.000000" height="20.000000" viewBox="0 0 20 20" fill="none" xmlns="http://www.w3.org/2000/svg" xmlns:xlink="http://www.w3.org/1999/xlink">
	<desc>
			Created with Pixso.
	</desc>
	<defs/>
	<path id="Vector" d="M0 20L1.41 14.86C0.54 13.36 0.08 11.65 0.08 9.9C0.08 4.44 4.55 0 10.04 0C12.7 0 15.2 1.03 17.08 2.9C18.96 4.78 20 7.27 20 9.91C19.99 15.38 15.53 19.82 10.04 19.82C8.37 19.82 6.73 19.41 5.27 18.62L0 20ZM5.52 16.82C6.92 17.65 8.26 18.15 10.03 18.15C14.6 18.15 18.31 14.45 18.31 9.91C18.32 5.36 14.62 1.67 10.04 1.67C5.48 1.67 1.76 5.36 1.76 9.9C1.76 11.76 2.31 13.15 3.22 14.6L2.39 17.64L5.52 16.82ZM15.05 12.27C14.99 12.17 14.83 12.1 14.58 11.98C14.33 11.86 13.1 11.26 12.88 11.17C12.65 11.09 12.48 11.05 12.32 11.3C12.15 11.55 11.67 12.1 11.53 12.27C11.38 12.43 11.24 12.46 10.99 12.33C10.74 12.21 9.94 11.95 8.99 11.1C8.25 10.45 7.75 9.63 7.6 9.39C7.46 9.14 7.59 9 7.71 8.88C7.82 8.77 7.96 8.59 8.09 8.45C8.21 8.3 8.25 8.2 8.34 8.03C8.42 7.87 8.38 7.72 8.32 7.6C8.25 7.48 7.76 6.26 7.55 5.76C7.35 5.28 7.14 5.34 6.99 5.34L6.51 5.33C6.35 5.33 6.08 5.39 5.85 5.64C5.62 5.89 4.98 6.48 4.98 7.7C4.98 8.92 5.87 10.1 5.99 10.27C6.12 10.43 7.75 12.93 10.24 14.01C10.84 14.26 11.3 14.41 11.66 14.53C12.26 14.72 12.8 14.69 13.23 14.63C13.71 14.55 14.7 14.03 14.91 13.45C15.12 12.87 15.12 12.37 15.05 12.27Z" fill="#FFFFFF" fill-opacity="1.000000" fill-rule="nonzero"/>
</svg>
